# xmcd
#
# Track frame offsets:
# 150
# 11487
# 22592
# 32700
# 45435
# 55842
# 67575
# 77700
# 89575
# 100772
#
# Disc length: 1496 seconds
#
#
# Revision: 6
# Processed by: cddbd v1.5.1PL0 Copyright (c) Steve Scherf et al.
# Submitted via: FreeRIP 2.942 
#
DISCID=6405d60a
DTITLE=Drifters - The Platters Meet The Drifters
DYEAR=1994
DGENRE=Soul
TTITLE0=Save The Last Dance For Me
TTITLE1=Saturday Night At The Movies
TTITLE2=When My Little Girl Is Smiling
TTITLE3=On Broadway
TTITLE4=Dance With Me
TTITLE5=Under The Boardwalk
TTITLE6=There Goes My Baby
TTITLE7=This Magic Moment
TTITLE8=If You Cry, True Love, TrueLove
TTITLE9=Up On The Roof
EXTD=
EXTT0=
EXTT1=
EXTT2=
EXTT3=
EXTT4=
EXTT5=
EXTT6=
EXTT7=
EXTT8=
EXTT9=
PLAYORDER=
